PathFileType	4	(X/Y/Z)	/Users/mathieubourgeois/Desktop/Analyse/Traitement/Sujet_05/Transformed_Static_Sujet_05_Tpose.trc
DataRate	CameraRate	NumFrames	NumMarkers	Units	OrigDataRate	OrigDataStartFrame	OrigNumFrames
120.000000	120.000000	4	36	mm	120.000000	87	232
Frame#	Time	RFHD			RANE			STRN			LANI			LKNE			T10			RHUM			RWRB			C7			LFWT			LTOE			RTOE			LWRA			LBWT			RBWT			RFWT			LKNI			RKNI			RKNE			LANE			RANI			LHEE			RHEE			LHUM			LRAD			RRAD			RWRA			LWRB			LFHD			LBHD			RBHD			RSHO			LSHO			CLAV			LCAR			RCAR			
		X1	Y1	Z1	X2	Y2	Z2	X3	Y3	Z3	X4	Y4	Z4	X5	Y5	Z5	X6	Y6	Z6	X7	Y7	Z7	X8	Y8	Z8	X9	Y9	Z9	X10	Y10	Z10	X11	Y11	Z11	X12	Y12	Z12	X13	Y13	Z13	X14	Y14	Z14	X15	Y15	Z15	X16	Y16	Z16	X17	Y17	Z17	X18	Y18	Z18	X19	Y19	Z19	X20	Y20	Z20	X21	Y21	Z21	X22	Y22	Z22	X23	Y23	Z23	X24	Y24	Z24	X25	Y25	Z25	X26	Y26	Z26	X27	Y27	Z27	X28	Y28	Z28	X29	Y29	Z29	X30	Y30	Z30	X31	Y31	Z31	X32	Y32	Z32	X33	Y33	Z33	X34	Y34	Z34	X35	Y35	Z35	X36	Y36	Z36	

88	0.725	-717.0433349609375	1633.868041992188	354.7913513183591	-822.8739624023438	75.48950958251955	193.7119750976561	-629.554443359375	1205.127075195312	370.199493408203	-536.7760009765625	83.60967254638673	227.2729797363281	-464.5096740722657	480.5214538574219	255.8104705810546	-643.6453247070312	1204.6142578125	145.3607788085936	-1064.959838867188	1360.457397460938	224.2952575683591	-1299.008544921875	1439.312622070312	277.5967102050778	-643.13818359375	1434.81005859375	187.5180511474608	-511.9725952148438	929.9469604492188	334.7026367187499	-472.5138854980469	34.3263854980469	385.5397338867187	-829.78369140625	37.06814956665041	391.3126831054686	46.55603027343747	1378.600341796875	237.299331665039	-582.90625	957.8116455078125	163.759552001953	-716.42822265625	958.5196533203125	169.0499572753905	-751.9000244140625	922.4573974609375	343.8163757324217	-567.6929321289062	446.0198974609375	245.042999267578	-703.091552734375	426.3750305175781	261.0263061523436	-800.2560424804688	476.1799621582031	262.021759033203	-463.7319641113281	87.0728225708008	186.2588195800781	-747.36328125	73.98013305664064	239.6354064941405	-511.3852844238281	44.39274978637696	142.1373901367187	-771.9595336914062	38.16790390014649	147.510513305664	-208.3134307861328	1379.001586914062	195.6811676025389	-219.0724029541016	1330.481079101562	248.8299407958983	-1058.513916015625	1322.646728515625	285.6925659179686	-1312.586547851562	1370.277709960938	259.9786987304685	32.80018615722653	1447.745971679688	241.2239379882812	-568.486328125	1645.589233398438	357.0946655273436	-553.6107177734375	1573.323364257812	221.6065216064452	-688.51220703125	1567.08154296875	196.3270874023436	-790.692138671875	1441.5517578125	237.3946075439451	-502.876220703125	1441.072021484375	223.4479522705077	-639.99755859375	1380.094482421875	320.7156677246093	117.4543151855468	1432.56982421875	210.7326049804687	-1393.1455078125	1417.382690429688	238.3505096435544	
89	0.7333333333333333	-717.0272216796875	1633.81689453125	354.918518066406	-822.881103515625	75.4999237060547	193.7132720947264	-629.5491333007812	1205.118408203125	370.2377929687499	-536.7782592773438	83.60945129394533	227.2687530517578	-464.4801330566407	480.5171813964844	255.8459930419921	-643.6307373046875	1204.595703125	145.4087982177733	-1064.94873046875	1360.372924804688	224.3426666259763	-1299.020141601562	1439.128051757812	277.6292724609372	-643.1577758789062	1434.7978515625	187.5576934814451	-511.9319458007813	929.9445190429688	334.7537536621093	-472.5167846679688	34.31853485107424	385.5491943359374	-829.7955322265625	37.06505966186526	391.3191528320311	46.55494308471677	1378.517700195312	237.4174041748046	-582.8934326171875	957.817626953125	163.8431243896483	-716.4147338867188	958.5118408203125	169.139434814453	-751.8724975585938	922.4406127929688	343.9019470214842	-567.6693725585938	446.0333251953125	245.0850830078124	-703.059326171875	426.3703918457031	261.0440979003905	-800.2219848632812	476.1883850097656	262.0375976562498	-463.732666015625	87.07190704345705	186.2464752197265	-747.3660278320312	73.96223449707033	239.6427917480468	-511.3865966796875	44.39976119995118	142.1470184326171	-771.9611206054688	38.1695899963379	147.5091552734374	-208.3239898681641	1378.93994140625	195.7636718749999	-219.0667572021485	1330.439453125	248.9142913818358	-1058.482543945312	1322.554443359375	285.7668457031248	-1312.586181640625	1370.082275390625	260.0458679199216	32.80828857421872	1447.666748046875	241.318618774414	-568.4825439453125	1645.55419921875	357.1659545898436	-553.653564453125	1573.37451171875	221.627960205078	-688.5692138671875	1567.113891601562	196.4007873535155	-790.6944580078125	1441.524658203125	237.4279022216795	-502.8720703125	1441.060913085938	223.4685211181639	-640.006591796875	1380.077392578125	320.7369384765624	117.4701461791992	1432.464721679688	210.8455200195312	-1393.167724609375	1417.1279296875	238.4028320312497	
90	0.7416666666666667	-717.0303344726562	1633.774169921875	355.0411682128904	-822.8750610351562	75.50215148925783	193.7145233154296	-629.5474853515625	1205.114013671875	370.2889404296874	-536.7705688476562	83.61519622802736	227.2789916992187	-464.4575195312501	480.5144348144531	255.8677825927734	-643.6232299804688	1204.583618164062	145.4517822265623	-1064.929809570312	1360.287719726562	224.4064483642576	-1299.043212890625	1438.94384765625	277.6871643066403	-643.1583862304688	1434.796875	187.5774078369139	-511.9028015136719	929.94091796875	334.8221740722655	-472.5155334472657	34.32029342651369	385.5480041503906	-829.7931518554688	37.07046127319338	391.3184814453124	46.56149673461911	1378.4296875	237.5118865966796	-582.8487548828125	957.8310546875	163.8941955566405	-716.3801879882812	958.5086059570312	169.2015228271483	-751.840576171875	922.4371337890625	343.9813537597655	-567.6566772460938	446.0277099609375	245.1096649169921	-703.039306640625	426.3641967773438	261.062774658203	-800.19970703125	476.185302734375	262.0547790527342	-463.7275390625	87.0851516723633	186.2520141601562	-747.3557739257812	73.98634338378908	239.6466217041015	-511.3888244628906	44.39175415039063	142.1529235839843	-771.9558715820312	38.17239379882813	147.5091705322265	-208.3075408935547	1378.882202148438	195.8461303710936	-219.0846862792969	1330.405151367188	249.0198974609374	-1058.457397460938	1322.461791992188	285.8521728515623	-1312.58349609375	1369.9013671875	260.0694885253904	32.82332229614255	1447.59326171875	241.3890228271484	-568.487548828125	1645.532958984375	357.2179870605467	-553.7153930664062	1573.425048828125	221.6306762695311	-688.6278076171875	1567.151000976562	196.4730682373045	-790.7013549804688	1441.509033203125	237.4423828124998	-502.8699645996094	1441.055541992188	223.4914245605467	-640.0020751953125	1380.086303710938	320.758575439453	117.4919052124023	1432.348266601562	210.9547119140624	-1393.154907226562	1416.90625	238.4464721679685	
91	0.75	-717.0404052734375	1633.716552734375	355.1801147460935	-822.858642578125	75.50080871582033	193.7168121337889	-629.54931640625	1205.12109375	370.3260498046874	-536.767333984375	83.6117630004883	227.2681274414062	-464.4357910156251	480.5143737792969	255.9076538085937	-643.6176147460938	1204.577392578125	145.5113067626951	-1064.934448242188	1360.184814453125	224.4612731933591	-1299.067993164062	1438.742065429688	277.7242126464841	-643.142578125	1434.79150390625	187.6014251708983	-511.8663024902344	929.9431762695312	334.8764343261718	-472.5231933593751	34.32378387451174	385.5522766113281	-829.7933349609375	37.06551742553713	391.3177185058593	46.55392074584958	1378.337768554688	237.6320037841796	-582.8147583007812	957.8345336914062	163.9557037353514	-716.3609619140625	958.5252685546875	169.2526855468749	-751.8065185546875	922.4292602539062	344.0499572753905	-567.6314697265625	446.0361633300781	245.1516876220702	-703.0181884765625	426.3619079589844	261.0832519531249	-800.1653442382812	476.181884765625	262.083770751953	-463.7279052734375	87.08941650390626	186.2522277832031	-747.36572265625	73.98426818847658	239.6541900634765	-511.3780822753906	44.38548278808594	142.1472167968749	-771.9761352539062	38.1828842163086	147.5120391845702	-208.3069763183594	1378.833374023438	195.908233642578	-219.0855560302735	1330.363037109375	249.1167907714843	-1058.435424804688	1322.369750976562	285.928253173828	-1312.542358398438	1369.679931640625	260.0682983398435	32.84162521362302	1447.502563476562	241.4763183593749	-568.4927978515625	1645.50244140625	357.3011779785155	-553.7718505859375	1573.474853515625	221.6529541015624	-688.6947631835938	1567.173706054688	196.5479431152342	-790.71044921875	1441.490844726562	237.4666290283201	-502.8655700683594	1441.039794921875	223.5133361816405	-640.0115966796875	1380.076049804688	320.7959899902343	117.5159683227539	1432.24609375	211.0579833984374	-1393.168212890625	1416.694458007812	238.5035400390622	
